<svg width="260" height="260" viewBox="0 0 260 260" fill="none" xmlns="http://www.w3.org/2000/svg">
<g clip-path="url(#paint0_angular_5_821_clip_path)" data-figma-skip-parse="true"><g transform="matrix(0.003 -0.13 0.131304 0.0030301 130 130)"><foreignObject x="-1030.4" y="-1030.4" width="2060.8" height="2060.8"><div xmlns="http://www.w3.org/1999/xhtml" style="background:conic-gradient(from 90deg,rgba(106, 76, 50, 1) 0deg,rgba(109, 79, 53, 1) 64.8deg,rgba(110, 80, 54, 1) 77.4deg,rgba(116, 85, 59, 1) 192.6deg,rgba(152, 119, 91, 1) 360deg);height:100%;width:100%;opacity:1"></div></foreignObject></g></g><path d="M130 0L242.583 65V195L130 260L17.4167 195V65L130 0Z" data-figma-gradient-fill="{&#34;type&#34;:&#34;GRADIENT_ANGULAR&#34;,&#34;stops&#34;:[{&#34;color&#34;:{&#34;r&#34;:0.41568627953529358,&#34;g&#34;:0.29803922772407532,&#34;b&#34;:0.19607843458652496,&#34;a&#34;:1.0},&#34;position&#34;:0.0},{&#34;color&#34;:{&#34;r&#34;:0.43083912134170532,&#34;g&#34;:0.31232082843780518,&#34;b&#34;:0.20960493385791779,&#34;a&#34;:1.0},&#34;position&#34;:0.18000000715255737},{&#34;color&#34;:{&#34;r&#34;:0.43485018610954285,&#34;g&#34;:0.31610125303268433,&#34;b&#34;:0.21318547427654266,&#34;a&#34;:1.0},&#34;position&#34;:0.21500000357627869},{&#34;color&#34;:{&#34;r&#34;:0.45668810606002808,&#34;g&#34;:0.33668354153633118,&#34;b&#34;:0.23267953097820282,&#34;a&#34;:1.0},&#34;position&#34;:0.53500002622604370},{&#34;color&#34;:{&#34;r&#34;:0.59791666269302368,&#34;g&#34;:0.46979171037673950,&#34;b&#34;:0.35874998569488525,&#34;a&#34;:1.0},&#34;position&#34;:1.0}],&#34;stopsVar&#34;:[{&#34;color&#34;:{&#34;r&#34;:0.41568627953529358,&#34;g&#34;:0.29803922772407532,&#34;b&#34;:0.19607843458652496,&#34;a&#34;:1.0},&#34;position&#34;:0.0},{&#34;color&#34;:{&#34;r&#34;:0.43083912134170532,&#34;g&#34;:0.31232082843780518,&#34;b&#34;:0.20960493385791779,&#34;a&#34;:1.0},&#34;position&#34;:0.18000000715255737},{&#34;color&#34;:{&#34;r&#34;:0.43485018610954285,&#34;g&#34;:0.31610125303268433,&#34;b&#34;:0.21318547427654266,&#34;a&#34;:1.0},&#34;position&#34;:0.21500000357627869},{&#34;color&#34;:{&#34;r&#34;:0.45668810606002808,&#34;g&#34;:0.33668354153633118,&#34;b&#34;:0.23267953097820282,&#34;a&#34;:1.0},&#34;position&#34;:0.53500002622604370},{&#34;color&#34;:{&#34;r&#34;:0.59791666269302368,&#34;g&#34;:0.46979171037673950,&#34;b&#34;:0.35874998569488525,&#34;a&#34;:1.0},&#34;position&#34;:1.0}],&#34;transform&#34;:{&#34;m00&#34;:6.0000004768371582,&#34;m01&#34;:262.60870361328125,&#34;m02&#34;:-4.3043580055236816,&#34;m10&#34;:-260.0,&#34;m11&#34;:6.0602021217346191,&#34;m12&#34;:256.96990966796875},&#34;opacity&#34;:1.0,&#34;blendMode&#34;:&#34;NORMAL&#34;,&#34;visible&#34;:true}"/>
<path d="M130 7L236.521 68.5V191.5L130 253L23.4789 191.5V68.5L130 7Z" fill="url(#paint1_radial_5_821)"/>
<path d="M101 18L130 0L159.5 14.5V243L130 260L101 243V18Z" fill="url(#paint2_linear_5_821)"/>
<circle cx="130" cy="130" r="66" fill="url(#paint3_linear_5_821)"/>
<path d="M130 84L142.424 117.576L176 130L142.424 142.424L130 176L117.576 142.424L84 130L117.576 117.576L130 84Z" fill="#D9D9D9"/>
<path d="M130 84L142.424 117.576L176 130L142.424 142.424L130 176L117.576 142.424L84 130L117.576 117.576L130 84Z" fill="#D9D9D9"/>
<defs>
<clipPath id="paint0_angular_5_821_clip_path"><path d="M130 0L242.583 65V195L130 260L17.4167 195V65L130 0Z"/></clipPath><radialGradient id="paint1_radial_5_821" cx="0" cy="0" r="1" gradientUnits="userSpaceOnUse" gradientTransform="translate(130 130) rotate(90) scale(123)">
<stop stop-color="#E2D3C6"/>
<stop offset="1" stop-color="#735439"/>
</radialGradient>
<linearGradient id="paint2_linear_5_821" x1="129.72" y1="260" x2="130.78" y2="-2.90486e-07" gradientUnits="userSpaceOnUse">
<stop stop-color="#6A4C32"/>
<stop offset="1" stop-color="#B48964"/>
</linearGradient>
<linearGradient id="paint3_linear_5_821" x1="130.562" y1="196" x2="129.438" y2="64" gradientUnits="userSpaceOnUse">
<stop stop-color="#7C5A3E"/>
<stop offset="1" stop-color="#A27B58"/>
</linearGradient>
</defs>
</svg>
